<svg width="103" height="15" viewBox="0 0 103 15" fill="none" xmlns="http://www.w3.org/2000/svg">
<path d="M7.51841 1.216L9.15041 1.344L11.3104 2.24L12.6704 3.984L11.6784 4.992L10.8464 4.56L9.63041 3.216L7.90241 2.704L6.28641 3.168L5.05441 4.896L4.63841 7.696L5.26241 10.976L7.90241 12.656L9.40641 12.464L10.4624 11.616V8.496L12.1584 6.8L13.8544 8.496V12.256L10.9104 13.824L7.51841 14.352L4.83041 13.888L2.70241 12.528L1.29441 10.416L0.830413 7.776L1.29441 5.12L2.70241 3.04L4.83041 1.664L7.51841 1.216ZM22.4032 9.712L20.6432 6.976H19.3152L19.3312 9.776L19.3152 12.576H20.4352L22.4192 9.712H22.4032ZM19.3312 5.232H20.5312L22.7392 5.392L24.4672 6.128L26.0512 9.68L25.0752 12.912L21.7792 14L19.3792 14.016L16.9632 14L15.7952 12.848L15.7792 9.808V6.768V3.728L15.7952 0.688H19.3312V2.96V5.232ZM35.0987 8.336L34.4907 7.296L33.1947 6.928L31.4827 8.336H35.0987ZM31.3707 10.144L33.2747 12.176L36.0107 10.992L37.1307 12.016L35.8827 13.552L33.2107 14.304L31.0507 14L29.3867 13.12L27.8667 9.568L29.3547 6.16L33.0187 4.944L36.6027 6.272L37.5787 7.888L37.8027 10.064L37.7547 10.144L34.5547 10.16L31.3707 10.144ZM43.1665 9.712L45.1505 12.576H46.2705L46.2545 9.776L46.2705 6.976H44.9425L43.1665 9.712ZM46.2545 5.232V2.976V0.704H49.7905V3.728V6.768L49.8065 9.808L49.7905 12.848L48.6225 14L46.2065 14.016L43.8065 14L40.4785 12.912L39.5345 9.68L41.0705 6.08L42.8305 5.376L45.0545 5.232H46.2545ZM58.5337 14V13.392L56.5177 14.16L53.2057 13.216L51.8777 10.752L51.7977 9.968L51.7817 8.624L51.8137 6.016L53.5417 4.848L55.2857 6.016V9.264L56.8857 12.4L58.5337 11.616L58.5177 8.24L58.5337 4.864H62.0057L62.0537 7.152L62.0377 9.424V11.712L62.0057 14H58.5337ZM73.5983 1.552L72.6223 4.592L71.6303 7.632L70.5903 10.656L69.5343 13.68L68.7343 14.192L67.8863 13.68L66.7823 11.12L65.6943 8.56L64.6383 5.984L63.5823 3.408L63.4863 2.736L65.2143 1.152L66.8463 2.368L68.1903 5.472L69.5023 8.608L70.6863 5.072L71.9023 1.552H73.5983ZM78.4435 2.304L76.9075 3.776L75.3715 2.304L76.9075 0.704L78.4435 2.304ZM78.6995 6.8L78.7155 10.384L78.6995 13.968H75.1795L75.1635 10.384L75.1795 6.8L76.9395 5.04L78.6995 6.8ZM87.2363 9.712L85.4763 6.976H84.1483L84.1643 9.776L84.1483 12.576H85.2683L87.2523 9.712H87.2363ZM84.1643 5.232H85.3643L87.5723 5.392L89.3003 6.128L90.8843 9.68L89.9083 12.912L86.6123 14L84.2123 14.016L81.7963 14L80.6283 12.848L80.6123 9.808V6.768V3.728L80.6283 0.688H84.1643V2.96V5.232ZM99.9318 8.336L99.3238 7.296L98.0278 6.928L96.3158 8.336H99.9318ZM96.2038 10.144L98.1078 12.176L100.844 10.992L101.964 12.016L100.716 13.552L98.0438 14.304L95.8838 14L94.2198 13.12L92.6998 9.568L94.1878 6.16L97.8518 4.944L101.436 6.272L102.412 7.888L102.636 10.064L102.588 10.144L99.3878 10.16L96.2038 10.144Z" fill="#228B22"/>
</svg>
