<svg width="500" height="350" viewBox="0 0 500 350" fill="none" xmlns="http://www.w3.org/2000/svg">
<path d="M421.867 325.703C424.176 326.579 426.654 326.798 429.064 326.34C431.474 325.882 433.733 324.762 435.626 323.088C440.445 318.723 441.957 311.532 443.185 304.873L446.821 285.177L439.208 290.834C433.734 294.902 428.136 299.101 424.345 304.994C420.555 310.886 418.9 318.93 421.946 325.306" fill="#E6E6E6"/>
<path d="M422.518 349.549C421.748 343.492 420.955 337.357 421.496 331.235C421.976 325.799 423.512 320.488 426.642 316.134C428.303 313.827 430.324 311.851 432.614 310.294C433.212 309.888 433.761 310.909 433.166 311.313C429.204 314.016 426.139 318.007 424.413 322.711C422.507 327.942 422.202 333.644 422.533 339.201C422.731 342.561 423.152 345.899 423.576 349.234C423.611 349.385 423.59 349.544 423.519 349.679C423.448 349.814 423.332 349.915 423.194 349.961C423.054 350.001 422.905 349.981 422.779 349.904C422.653 349.826 422.56 349.698 422.521 349.548L422.518 349.549Z" fill="#F2F2F2"/>
<path d="M484.011 349.306C484.011 349.306 476.016 328.069 500 312.141L484.011 349.306Z" fill="#E6E6E6"/>
<path d="M474.179 348.92C474.179 348.92 471.74 333.783 452.865 333.913L474.179 348.92Z" fill="#E6E6E6"/>
<path d="M32.406 163.066H208.16V29.2723H32.406V163.066Z" fill="white"/>
<path d="M211.921 167.125H28.6448V25.2131H211.921V167.125ZM32.4061 163.066H208.16V29.2723H32.4061V163.066Z" fill="#E6E6E6"/>
<path d="M16.8495 150.771H15.5537V14.7953H191.312V16.2045H16.8495V150.771Z" fill="#3F3D56"/>
<path d="M1.29641 135.975H0V0H175.759V1.40923H1.29641V135.975Z" fill="#3F3D56"/>
<path d="M120.283 137.032C141.042 137.032 157.871 118.737 157.871 96.1693C157.871 73.6012 141.042 55.3061 120.283 55.3061C99.5235 55.3061 82.6948 73.6012 82.6948 96.1693C82.6948 118.737 99.5235 137.032 120.283 137.032Z" fill="white"/>
<path d="M120.283 137.709C99.2109 137.709 82.0679 119.074 82.0679 96.1693C82.0679 73.2643 99.2109 54.6297 120.283 54.6297C141.354 54.6297 158.498 73.2643 158.498 96.1693C158.498 119.074 141.354 137.709 120.283 137.709ZM120.283 55.9828C99.9024 55.9828 83.3217 74.0102 83.3217 96.1693C83.3217 118.328 99.9024 136.356 120.283 136.356C140.663 136.356 157.244 118.328 157.244 96.1693C157.244 74.0102 140.663 55.9828 120.283 55.9828Z" fill="#3F3D56"/>
<path d="M109.895 75.8957V117.147L141.082 96.2393L109.895 75.8957Z" fill="#228B22"/>
<path d="M323.011 341.392H315.998L312.662 312.198H323.012L323.011 341.392Z" fill="#FFB7B7"/>
<path d="M324.8 348.729L302.186 348.728V348.42C302.186 345.9 303.113 343.484 304.764 341.703C306.414 339.922 308.653 338.921 310.988 338.921H310.988L324.8 338.921L324.8 348.729Z" fill="#2F2E41"/>
<path d="M383.267 330.328L377.387 334.453L359.844 311.94L368.523 305.851L383.267 330.328Z" fill="#FFB7B7"/>
<path d="M388.472 335.427L369.512 348.729L369.356 348.47C368.084 346.358 367.641 343.787 368.126 341.323C368.61 338.858 369.981 336.702 371.938 335.329L371.939 335.328L383.519 327.204L388.472 335.427Z" fill="#2F2E41"/>
<path d="M340.932 65.8291C344.501 65.8291 347.394 62.7067 347.394 58.8551C347.394 55.0035 344.501 51.8811 340.932 51.8811C337.363 51.8811 334.47 55.0035 334.47 58.8551C334.47 62.7067 337.363 65.8291 340.932 65.8291Z" fill="#2F2E41"/>
<path d="M334.832 61.3916C334.158 60.4283 333.727 59.2929 333.582 58.0962C333.436 56.8995 333.581 55.6825 334.002 54.5643C334.423 53.4461 335.105 52.4648 335.983 51.7165C336.86 50.9682 337.903 50.4784 339.008 50.295C338.111 50.2684 337.219 50.4437 336.388 50.8098C335.557 51.176 334.806 51.7248 334.183 52.4215C333.56 53.1181 333.078 53.9473 332.768 54.8561C332.458 55.7649 332.326 56.7335 332.382 57.7C332.438 58.6665 332.68 59.6099 333.093 60.4699C333.505 61.33 334.08 62.0879 334.778 62.6953C335.477 63.3027 336.286 63.7463 337.152 63.9978C338.019 64.2494 338.925 64.3033 339.812 64.1563C338.842 64.1293 337.891 63.8666 337.029 63.388C336.167 62.9093 335.416 62.2269 334.832 61.3916Z" fill="#2F2E41"/>
<path d="M334.237 104.019C344.721 104.019 353.22 94.8466 353.22 83.5324C353.22 72.2182 344.721 63.0462 334.237 63.0462C323.753 63.0462 315.255 72.2182 315.255 83.5324C315.255 94.8466 323.753 104.019 334.237 104.019Z" fill="#2F2E41"/>
<path d="M316.549 76.0698C318.604 71.2423 322.316 67.4649 326.902 65.5351C331.488 63.6052 336.589 63.6737 341.13 65.7262C340.938 65.6228 340.748 65.5176 340.552 65.4204C335.976 63.1534 330.754 62.9407 326.033 64.8292C321.313 66.7177 317.48 70.5526 315.38 75.4903C313.279 80.428 313.082 86.0641 314.832 91.1586C316.582 96.2531 320.135 100.389 324.711 102.656C324.907 102.753 325.105 102.84 325.302 102.93C320.901 100.551 317.527 96.4208 315.894 91.4094C314.261 86.398 314.496 80.8978 316.549 76.0698Z" fill="#2F2E41"/>
<path d="M357.27 191.034L370.874 267.196L388.73 324.087L359.821 330.511L331.762 216.727L330.911 325.923L294.35 326.84L302.853 261.689L313.176 188.137L357.27 191.034Z" fill="#2F2E41"/>
<path d="M334.297 103.877C341.341 103.877 347.051 97.7146 347.051 90.1129C347.051 82.5111 341.341 76.3487 334.297 76.3487C327.253 76.3487 321.543 82.5111 321.543 90.1129C321.543 97.7146 327.253 103.877 334.297 103.877Z" fill="#FFB8B8"/>
<path d="M346.216 110.672L326.66 111.201L313.056 118.542L314.756 160.752L311.459 193.076C311.459 193.076 310.227 198.142 318.729 202.73C321.45 204.198 324.955 204.82 328.463 204.988C335.647 205.239 342.696 202.834 348.44 198.171C350.223 196.761 352.199 195.818 353.869 196.539C358.12 198.374 358.97 192.869 358.97 192.869L353.869 166.258L361.521 140.953L353.792 113.789L346.216 110.672Z" fill="#228B22"/>
<path d="M322.523 75.7212V91.0462H325.812L329.998 86.2069L329.437 91.0462H343.974L343.077 86.2069L344.871 91.0462H347.188V75.7212H322.523Z" fill="#2F2E41"/>
<path d="M349.74 86.296C349.704 85.881 349.525 85.4956 349.239 85.2149C348.954 84.9342 348.581 84.7783 348.195 84.7775H346.634V95.8799H348.195C348.581 95.8791 348.954 95.7232 349.239 95.4425C349.525 95.1618 349.704 94.7764 349.74 94.3614C350.518 94.1353 351.205 93.639 351.696 92.9491C352.186 92.2592 352.452 91.4142 352.452 90.5449V90.1126C352.452 89.2432 352.186 88.3982 351.696 87.7083C351.205 87.0185 350.518 86.5221 349.74 86.296Z" fill="#228B22"/>
<path d="M321.534 94.5017H319.808C319.327 94.5017 318.85 94.3994 318.405 94.2005C317.96 94.0017 317.556 93.7102 317.215 93.3428C316.875 92.9754 316.605 92.5392 316.421 92.0591C316.236 91.5791 316.142 91.0645 316.142 90.5449V90.1126C316.142 89.593 316.236 89.0784 316.421 88.5984C316.605 88.1183 316.875 87.6821 317.215 87.3147C317.556 86.9473 317.96 86.6558 318.405 86.457C318.85 86.2581 319.327 86.1558 319.808 86.1558H321.534V94.5017V94.5017Z" fill="#228B22"/>
<path d="M321.96 95.88H320.399C319.985 95.88 319.588 95.7025 319.295 95.3866C319.002 95.0707 318.838 94.6422 318.838 94.1954V86.462C318.838 86.0152 319.002 85.5868 319.295 85.2709C319.588 84.9549 319.985 84.7775 320.399 84.7775H321.96V95.88Z" fill="#228B22"/>
<path d="M348.905 86.7366H347.761C347.761 78.0162 341.774 70.9218 334.414 70.9218C327.055 70.9218 321.067 78.0162 321.067 86.7366H319.923C319.923 77.3356 326.424 69.6871 334.414 69.6871C342.404 69.6871 348.905 77.3356 348.905 86.7366Z" fill="#228B22"/>
<path d="M302.295 215.387C302.983 214.981 303.581 214.418 304.045 213.736C304.51 213.055 304.831 212.271 304.984 211.441C305.138 210.611 305.122 209.755 304.936 208.933C304.75 208.111 304.399 207.343 303.908 206.682L309.8 195.081L304.14 189.498L296.034 206.007C295.061 206.971 294.449 208.286 294.315 209.703C294.18 211.12 294.532 212.542 295.304 213.698C296.076 214.854 297.213 215.665 298.502 215.976C299.79 216.287 301.14 216.078 302.295 215.387V215.387Z" fill="#FFB7B7"/>
<path d="M317.307 118.542L315.018 117.332C315.018 117.332 309.655 118.542 307.954 122.212C306.254 125.883 302.002 163.505 302.002 163.505L298.601 188.281C298.601 188.281 296.05 188.281 296.05 191.033C296.05 193.786 292.649 201.127 295.2 201.127C297.751 201.127 307.954 201.127 309.655 199.292C311.355 197.457 314.756 190.116 313.906 189.198C313.056 188.281 311.355 188.281 311.355 188.281L313.747 163.442L317.307 118.542Z" fill="#228B22"/>
<path d="M363.004 206.763C362.433 206.183 361.987 205.474 361.698 204.688C361.408 203.902 361.281 203.056 361.327 202.211C361.373 201.366 361.59 200.543 361.962 199.798C362.335 199.053 362.854 198.406 363.484 197.901L360.505 185.069L367.289 181.213L371.261 199.399C371.976 200.596 372.259 202.035 372.057 203.443C371.855 204.852 371.181 206.131 370.163 207.038C369.146 207.946 367.855 208.42 366.535 208.369C365.216 208.318 363.959 207.747 363.004 206.763Z" fill="#FFB7B7"/>
<path d="M354.471 155.323L356.863 180.162C356.863 180.162 355.162 180.162 354.312 181.08C353.462 181.997 356.863 189.338 358.564 191.173C360.264 193.009 370.467 193.009 373.018 193.009C375.569 193.009 372.168 185.668 372.168 182.915C372.168 180.162 369.617 180.162 369.617 180.162L366.216 155.386C366.216 155.386 361.965 121.824 360.264 118.153C358.564 114.483 353.2 113.272 353.2 113.272L350.911 114.483L354.471 155.323Z" fill="#228B22"/>
<path d="M307.839 207.035L307.73 207.11L305.822 203.865C305.677 203.618 305.489 203.405 305.267 203.237C305.046 203.069 304.796 202.95 304.532 202.886C304.268 202.822 303.995 202.815 303.728 202.865C303.461 202.916 303.207 203.022 302.978 203.178L296.608 207.54C296.147 207.856 295.82 208.357 295.701 208.932C295.582 209.508 295.679 210.111 295.972 210.609L306.437 228.41C306.582 228.657 306.77 228.87 306.992 229.038C307.213 229.206 307.463 229.325 307.727 229.389C307.991 229.453 308.264 229.46 308.531 229.41C308.798 229.359 309.052 229.253 309.281 229.097L315.651 224.735C316.112 224.419 316.439 223.918 316.558 223.343C316.677 222.767 316.58 222.164 316.287 221.666L309.087 209.419L309.197 209.344L307.839 207.035Z" fill="#3F3D56"/>
<path d="M305.459 204.132L315.909 221.906C316.127 222.278 316.2 222.729 316.111 223.158C316.022 223.588 315.778 223.962 315.434 224.198L309.033 228.581C308.689 228.817 308.271 228.895 307.873 228.799C307.475 228.703 307.128 228.44 306.909 228.068L296.46 210.294C296.241 209.922 296.168 209.471 296.258 209.041C296.347 208.611 296.59 208.237 296.935 208.001L297.711 207.47C297.733 207.597 297.783 207.717 297.857 207.818C297.931 207.92 298.028 208 298.137 208.052C298.247 208.104 298.367 208.126 298.487 208.116C298.606 208.107 298.722 208.065 298.823 207.996L302.472 205.498C302.573 205.428 302.657 205.333 302.716 205.22C302.775 205.108 302.808 204.981 302.811 204.852C302.814 204.723 302.788 204.595 302.734 204.479C302.681 204.363 302.602 204.263 302.504 204.188L303.335 203.619C303.68 203.383 304.098 203.304 304.496 203.401C304.894 203.497 305.241 203.76 305.459 204.132Z" fill="#228B22"/>
<path d="M494.791 350H255.945C255.779 350 255.62 349.929 255.502 349.802C255.384 349.675 255.318 349.503 255.318 349.323C255.318 349.144 255.384 348.972 255.502 348.845C255.62 348.718 255.779 348.647 255.945 348.647H494.791C494.957 348.647 495.116 348.718 495.234 348.845C495.351 348.972 495.417 349.144 495.417 349.323C495.417 349.503 495.351 349.675 495.234 349.802C495.116 349.929 494.957 350 494.791 350Z" fill="#CBCBCB"/>
</svg>
