<svg width="350" height="350" viewBox="0 0 350 350" fill="none" xmlns="http://www.w3.org/2000/svg">
<path d="M42.2296 0C38.312 0.00448408 34.5561 1.59251 31.7859 4.41568C29.0157 7.23886 27.4575 11.0666 27.4531 15.0592V334.327C27.4575 338.32 29.0157 342.147 31.7859 344.971C34.5561 347.794 38.312 349.382 42.2296 349.386H179.373C183.291 349.382 187.047 347.794 189.817 344.97C192.587 342.147 194.145 338.32 194.15 334.327V15.0592C194.145 11.0666 192.587 7.23886 189.817 4.41568C187.047 1.59251 183.291 0.00448408 179.373 0H42.2296Z" fill="#E6E6E6"/>
<path d="M185.009 73.8756V48.2562C177.2 46.4284 169.848 42.9668 163.421 38.0908C156.993 33.2149 151.63 27.031 147.671 19.9313C145.772 21.3664 143.469 22.1388 141.105 22.1337H121.144C126.47 35.6635 135.159 47.5482 146.356 56.62C157.554 65.6917 170.874 71.6384 185.009 73.8756Z" fill="white"/>
<path d="M185.009 46.788V22.1756C185.01 20.3752 184.662 18.5924 183.986 16.9289C183.311 15.2655 182.32 13.754 181.071 12.4809C179.821 11.2079 178.338 10.1981 176.706 9.50941C175.074 8.82069 173.325 8.46649 171.558 8.46704H152.178V10.8436C152.18 12.3679 151.878 13.8767 151.29 15.2785C150.703 16.6803 149.842 17.9459 148.761 18.9986C152.59 25.9324 157.788 31.9818 164.027 36.7647C170.266 41.5476 177.411 44.9602 185.009 46.787V46.788Z" fill="white"/>
<path d="M91.7843 22.1342H79.3024C76.3651 22.1333 73.5484 20.9434 71.4718 18.8262C69.3953 16.7091 68.2289 13.838 68.2293 10.8445V8.46796H50.0469C48.2803 8.46783 46.5311 8.82236 44.899 9.5113C43.2669 10.2002 41.784 11.2101 40.5349 12.4832C39.2858 13.7562 38.295 15.2676 37.6191 16.931C36.9432 18.5944 36.5955 20.3771 36.5957 22.1775V327.22C36.5938 329.02 36.9405 330.803 37.616 332.467C38.2914 334.131 39.2823 335.642 40.5318 336.914C41.7814 338.187 43.265 339.196 44.8978 339.883C46.5306 340.57 48.2804 340.922 50.0469 340.919H171.56C172.114 340.921 172.668 340.886 173.218 340.816C176.471 340.402 179.464 338.793 181.636 336.29C183.807 333.786 185.007 330.561 185.011 327.22V102.662C140.814 97.4452 103.989 65.3065 91.7843 22.1342Z" fill="white"/>
<path d="M119.629 22.1342H93.2439C105.388 64.5065 141.581 96.0315 185.01 101.227V75.3345C170.497 73.0732 156.82 66.9696 145.347 57.6339C133.874 48.2982 125.006 36.0571 119.629 22.1342H119.629Z" fill="white"/>
<path d="M175.753 250.727H51.0766C50.4645 250.726 49.8777 250.478 49.4449 250.037C49.012 249.595 48.7686 248.997 48.7678 248.374V216.855C48.7686 216.231 49.012 215.633 49.4449 215.192C49.8777 214.751 50.4645 214.503 51.0766 214.502H175.753C176.365 214.503 176.952 214.751 177.384 215.192C177.817 215.633 178.061 216.231 178.062 216.855V248.374C178.061 248.998 177.817 249.596 177.384 250.037C176.952 250.478 176.365 250.726 175.753 250.727ZM51.0766 215.443C50.7092 215.443 50.3569 215.592 50.0971 215.856C49.8373 216.121 49.6913 216.48 49.6913 216.855V248.374C49.6913 248.748 49.8373 249.107 50.0971 249.372C50.3569 249.637 50.7092 249.785 51.0766 249.785H175.753C176.12 249.785 176.472 249.637 176.732 249.372C176.992 249.107 177.138 248.748 177.138 248.374V216.855C177.138 216.481 176.992 216.122 176.732 215.857C176.472 215.592 176.12 215.443 175.753 215.443L51.0766 215.443Z" fill="#E6E6E6"/>
<path d="M67.2378 242.497C72.5933 242.497 76.9348 238.072 76.9348 232.614C76.9348 227.156 72.5933 222.732 67.2378 222.732C61.8823 222.732 57.5408 227.156 57.5408 232.614C57.5408 238.072 61.8823 242.497 67.2378 242.497Z" fill="#3F3D56"/>
<path d="M89.6333 226.026C89.2046 226.026 88.7935 226.199 88.4905 226.508C88.1874 226.817 88.0171 227.236 88.0171 227.673C88.0171 228.11 88.1874 228.529 88.4905 228.838C88.7935 229.146 89.2046 229.32 89.6333 229.32H165.824C166.253 229.32 166.664 229.146 166.967 228.838C167.27 228.529 167.44 228.11 167.44 227.673C167.44 227.236 167.27 226.817 166.967 226.508C166.664 226.199 166.253 226.026 165.824 226.026H89.6333Z" fill="#E6E6E6"/>
<path d="M89.6333 235.908C89.2046 235.908 88.7935 236.082 88.4905 236.391C88.1874 236.7 88.0171 237.119 88.0171 237.555C88.0171 237.992 88.1874 238.411 88.4905 238.72C88.7935 239.029 89.2046 239.203 89.6333 239.203H165.824C166.253 239.203 166.664 239.029 166.967 238.72C167.27 238.411 167.44 237.992 167.44 237.555C167.44 237.119 167.27 236.7 166.967 236.391C166.664 236.082 166.253 235.908 165.824 235.908H89.6333Z" fill="#E6E6E6"/>
<path d="M175.753 303.434H51.0766C50.4645 303.433 49.8777 303.185 49.4449 302.744C49.012 302.303 48.7686 301.705 48.7678 301.081V269.562C48.7686 268.938 49.012 268.34 49.4449 267.899C49.8777 267.458 50.4645 267.21 51.0766 267.209H175.753C176.365 267.21 176.952 267.458 177.384 267.899C177.817 268.34 178.061 268.938 178.062 269.562V301.081C178.061 301.705 177.817 302.303 177.384 302.744C176.952 303.185 176.365 303.433 175.753 303.434ZM51.0766 268.15C50.7092 268.15 50.3569 268.299 50.0971 268.564C49.8373 268.828 49.6913 269.187 49.6913 269.562V301.081C49.6913 301.455 49.8373 301.814 50.0971 302.079C50.3569 302.344 50.7092 302.493 51.0766 302.493H175.753C176.12 302.493 176.472 302.344 176.732 302.079C176.992 301.814 177.138 301.455 177.138 301.081V269.562C177.138 269.188 176.992 268.829 176.732 268.564C176.472 268.299 176.12 268.15 175.753 268.15L51.0766 268.15Z" fill="#E6E6E6"/>
<path d="M67.2378 295.204C72.5933 295.204 76.9348 290.779 76.9348 285.321C76.9348 279.863 72.5933 275.439 67.2378 275.439C61.8823 275.439 57.5408 279.863 57.5408 285.321C57.5408 290.779 61.8823 295.204 67.2378 295.204Z" fill="#3F3D56"/>
<path d="M89.6333 278.733C89.2046 278.733 88.7935 278.906 88.4905 279.215C88.1874 279.524 88.0171 279.943 88.0171 280.38C88.0171 280.817 88.1874 281.236 88.4905 281.545C88.7935 281.854 89.2046 282.027 89.6333 282.027H165.824C166.253 282.027 166.664 281.854 166.967 281.545C167.27 281.236 167.44 280.817 167.44 280.38C167.44 279.943 167.27 279.524 166.967 279.215C166.664 278.906 166.253 278.733 165.824 278.733H89.6333Z" fill="#E6E6E6"/>
<path d="M89.6333 288.615C89.2046 288.615 88.7935 288.789 88.4905 289.098C88.1874 289.407 88.0171 289.826 88.0171 290.263C88.0171 290.699 88.1874 291.118 88.4905 291.427C88.7935 291.736 89.2046 291.91 89.6333 291.91H165.824C166.253 291.91 166.664 291.736 166.967 291.427C167.27 291.118 167.44 290.699 167.44 290.263C167.44 289.826 167.27 289.407 166.967 289.098C166.664 288.789 166.253 288.615 165.824 288.615H89.6333Z" fill="#E6E6E6"/>
<path d="M110.79 185.416C105.029 185.419 99.3235 184.264 94.0001 182.018C88.6768 179.772 83.8399 176.479 79.7659 172.327C75.692 168.175 72.4608 163.246 70.2571 157.821C68.0534 152.396 66.9204 146.581 66.9229 140.709C66.9229 140.615 66.9229 140.517 66.9284 140.424C67.0628 115.941 86.738 96.0023 110.79 96.0023C116.551 96.0023 122.256 97.1587 127.578 99.4054C132.9 101.652 137.736 104.945 141.809 109.097C145.883 113.248 149.114 118.177 151.319 123.601C153.523 129.025 154.658 134.838 154.658 140.709C154.658 146.58 153.523 152.394 151.319 157.818C149.114 163.242 145.883 168.17 141.809 172.322C137.736 176.473 132.9 179.766 127.578 182.013C122.256 184.26 116.551 185.416 110.79 185.416ZM110.79 96.9435C99.4525 96.9692 88.5826 101.554 80.5424 109.701C72.5023 117.847 67.9415 128.899 67.851 140.453C67.8459 140.553 67.8464 140.634 67.8464 140.709C67.8453 149.367 70.3634 157.83 75.0824 165.03C79.8013 172.229 86.5091 177.84 94.3573 181.153C102.206 184.467 110.842 185.334 119.174 183.646C127.506 181.957 135.159 177.788 141.166 171.666C147.173 165.544 151.263 157.744 152.92 149.253C154.578 140.762 153.727 131.96 150.475 123.962C147.224 115.963 141.718 109.127 134.654 104.318C127.59 99.5087 119.285 96.9424 110.79 96.9435Z" fill="#3F3D56"/>
<path d="M130.657 139.678L100.632 122.011C100.492 121.928 100.332 121.885 100.17 121.885C100.008 121.885 99.849 121.928 99.7086 122.011C99.5682 122.094 99.4516 122.212 99.3706 122.355C99.2895 122.499 99.2468 122.661 99.2468 122.826V158.159C99.2468 158.324 99.2895 158.486 99.3706 158.629C99.4516 158.772 99.5682 158.891 99.7086 158.974C99.849 159.056 100.008 159.1 100.17 159.1C100.332 159.1 100.492 159.056 100.632 158.974L130.657 141.307C130.797 141.224 130.914 141.106 130.995 140.962C131.076 140.819 131.119 140.657 131.119 140.492C131.119 140.327 131.076 140.164 130.995 140.021C130.914 139.878 130.797 139.759 130.657 139.677L100.632 122.01C100.492 121.927 100.332 121.884 100.17 121.884C100.008 121.884 99.849 121.927 99.7086 122.01C99.5682 122.093 99.4516 122.211 99.3706 122.354C99.2895 122.498 99.2468 122.66 99.2468 122.825V158.159C99.2468 158.324 99.2895 158.486 99.3706 158.629C99.4516 158.772 99.5682 158.891 99.7086 158.974C99.849 159.056 100.008 159.1 100.17 159.1C100.332 159.1 100.492 159.056 100.632 158.974L130.657 141.307C130.797 141.224 130.914 141.106 130.995 140.962C131.076 140.819 131.119 140.657 131.119 140.492C131.119 140.327 131.076 140.164 130.995 140.021C130.914 139.878 130.797 139.759 130.657 139.677V139.678Z" fill="#228B22"/>
<path d="M349.818 350H0V348.974H350L349.818 350Z" fill="#3F3D56"/>
<path d="M272.753 172.273C279.878 172.273 285.653 166.387 285.653 159.127C285.653 151.866 279.878 145.98 272.753 145.98C265.629 145.98 259.854 151.866 259.854 159.127C259.854 166.387 265.629 172.273 272.753 172.273Z" fill="#FFB8B8"/>
<path d="M271.92 232.829C271.67 232.039 271.588 231.204 271.678 230.379C271.767 229.554 272.027 228.758 272.44 228.043C272.852 227.327 273.409 226.709 274.073 226.228C274.736 225.747 275.492 225.414 276.291 225.252C276.544 225.202 276.8 225.171 277.057 225.158L290.645 202.932L278.235 190.905C277.755 190.447 277.369 189.897 277.1 189.285C276.831 188.674 276.684 188.014 276.667 187.344C276.651 186.674 276.766 186.007 277.005 185.383C277.244 184.759 277.603 184.189 278.06 183.708C278.518 183.226 279.064 182.842 279.669 182.578C280.273 182.314 280.923 182.176 281.581 182.17C282.238 182.165 282.89 182.293 283.499 182.548C284.107 182.802 284.66 183.177 285.125 183.651L302.262 200.875L302.297 200.918C302.827 201.74 303.083 202.714 303.026 203.696C302.97 204.678 302.605 205.616 301.985 206.369L282.945 229.315C283.002 229.499 283.049 229.686 283.087 229.875C283.246 230.689 283.235 231.528 283.054 232.337C282.873 233.146 282.526 233.906 282.036 234.569C281.547 235.232 280.925 235.782 280.212 236.183C279.499 236.584 278.712 236.827 277.9 236.896C277.736 236.91 277.573 236.918 277.411 236.918C276.19 236.913 275.001 236.515 274.015 235.78C273.029 235.046 272.295 234.013 271.92 232.829Z" fill="#FFB8B8"/>
<path d="M251.508 342.095H245.069L242.006 316.783H251.509L251.508 342.095Z" fill="#FFB8B8"/>
<path d="M253.412 348.724H232.125V348.186C232.125 347.07 232.341 345.964 232.76 344.932C233.179 343.9 233.794 342.963 234.569 342.173C235.344 341.384 236.263 340.757 237.276 340.33C238.288 339.903 239.373 339.683 240.469 339.683H253.413L253.412 348.724Z" fill="#2F2E41"/>
<path d="M315.508 333.022L309.975 336.38L294.636 316.229L302.803 311.274L315.508 333.022Z" fill="#FFB8B8"/>
<path d="M302.181 348.824L301.912 348.364C300.78 346.426 300.45 344.109 300.994 341.923C301.538 339.737 302.911 337.861 304.813 336.707L315.934 329.958L320.472 337.723L302.181 348.824Z" fill="#2F2E41"/>
<path d="M241.193 330.948C236.88 279.185 234.313 231.097 250.082 211.481L250.204 211.329L276.74 222.147L276.784 222.243C276.874 222.442 285.699 242.227 283.641 255.534L290.186 286.22L311.528 322.64C311.7 322.933 311.809 323.261 311.847 323.6C311.885 323.939 311.853 324.283 311.751 324.608C311.649 324.933 311.48 325.233 311.256 325.487C311.032 325.741 310.758 325.943 310.451 326.081L301.176 330.239C300.653 330.472 300.065 330.504 299.52 330.33C298.975 330.157 298.51 329.789 298.21 329.295L274.994 290.712L261.879 261.119C261.808 260.958 261.687 260.826 261.535 260.742C261.383 260.659 261.207 260.628 261.036 260.656C260.866 260.684 260.708 260.769 260.589 260.897C260.47 261.025 260.396 261.189 260.378 261.365L253.11 331.001C253.049 331.593 252.775 332.14 252.341 332.538C251.907 332.936 251.344 333.156 250.76 333.155H243.549C242.957 333.151 242.388 332.923 241.953 332.515C241.517 332.107 241.246 331.549 241.193 330.948Z" fill="#2F2E41"/>
<path d="M250.171 211.891L250.045 211.83L250.025 211.688C249.034 204.618 250.207 196.761 253.512 188.337C255.142 184.215 258.17 180.826 262.045 178.788C265.921 176.75 270.386 176.198 274.627 177.234C277.07 177.847 279.361 178.971 281.356 180.534C283.35 182.097 285.004 184.066 286.213 186.314C287.407 188.54 288.134 190.994 288.349 193.52C288.564 196.047 288.261 198.592 287.46 200.994C283.293 213.412 277.888 225.031 277.833 225.147L277.72 225.389L250.171 211.891Z" fill="#228B22"/>
<path d="M231.077 241.216C230.894 239.788 231.221 238.34 231.997 237.137C232.774 235.933 233.948 235.053 235.307 234.658L260.122 186.106C260.44 185.545 260.866 185.055 261.374 184.665C261.881 184.275 262.461 183.993 263.077 183.835C263.694 183.677 264.335 183.646 264.964 183.745C265.592 183.844 266.194 184.071 266.735 184.411C267.276 184.751 267.745 185.199 268.113 185.727C268.482 186.255 268.742 186.853 268.88 187.486C269.018 188.118 269.03 188.773 268.915 189.41C268.8 190.047 268.561 190.655 268.213 191.196L242.811 239.41C242.864 239.703 242.895 240 242.904 240.298C242.925 241.114 242.785 241.925 242.491 242.684C242.198 243.443 241.756 244.133 241.194 244.713C240.632 245.294 239.961 245.753 239.22 246.062C238.48 246.372 237.686 246.525 236.886 246.514C236.008 246.501 235.145 246.291 234.357 245.897C233.569 245.504 232.876 244.938 232.328 244.239C231.642 243.37 231.208 242.323 231.075 241.216H231.077Z" fill="#FFB8B8"/>
<path d="M257.113 151.7H277.596V142.601C273.1 140.78 268.701 139.232 266.041 142.601C263.673 142.601 261.402 143.559 259.728 145.266C258.053 146.972 257.113 149.287 257.113 151.7Z" fill="#2F2E41"/>
<path d="M278.73 140.995C290.976 140.995 294.403 156.638 294.403 165.463C294.403 170.384 292.219 172.145 288.787 172.74L287.575 166.152L284.736 173.023C283.772 173.027 282.759 173.008 281.709 172.989L280.747 170.969L278.601 172.952C270.005 172.966 263.057 174.242 263.057 165.462C263.057 156.638 266.063 140.995 278.73 140.995Z" fill="#2F2E41"/>
<path d="M275.081 153.884V141.711C275.081 141.567 275.053 141.424 274.999 141.291C274.945 141.158 274.866 141.037 274.766 140.935C274.666 140.833 274.547 140.752 274.416 140.697C274.285 140.642 274.145 140.613 274.004 140.613H271.849C271.708 140.613 271.568 140.642 271.437 140.697C271.306 140.752 271.188 140.833 271.087 140.935C270.987 141.037 270.908 141.158 270.854 141.291C270.8 141.424 270.772 141.567 270.772 141.711V153.15C269.179 153.414 267.729 154.245 266.682 155.497C265.635 156.748 265.058 158.338 265.054 159.983C265.05 161.628 265.62 163.22 266.661 164.477C267.703 165.734 269.148 166.572 270.74 166.843C272.332 167.115 273.967 166.801 275.352 165.958C276.738 165.115 277.785 163.798 278.307 162.241C278.828 160.684 278.79 158.99 278.199 157.459C277.608 155.928 276.503 154.662 275.081 153.884H275.081Z" fill="#228B22"/>
<path d="M272.208 163.301C273.993 163.301 275.44 161.827 275.44 160.008C275.44 158.189 273.993 156.714 272.208 156.714C270.424 156.714 268.977 158.189 268.977 160.008C268.977 161.827 270.424 163.301 272.208 163.301Z" fill="white"/>
</svg>
