<svg width="350" height="350" viewBox="0 0 350 350" fill="none" xmlns="http://www.w3.org/2000/svg">
<g clip-path="url(#clip0_215_3593)">
<path d="M236.695 235.103C240.684 235.103 243.918 232.019 243.918 228.213C243.918 224.408 240.684 221.323 236.695 221.323C232.707 221.323 229.473 224.408 229.473 228.213C229.473 232.019 232.707 235.103 236.695 235.103Z" fill="#228B22"/>
<path d="M297.569 243.471H231.624C231.053 243.471 230.506 243.254 230.103 242.87C229.699 242.485 229.473 241.963 229.473 241.419C229.473 240.875 229.699 240.353 230.103 239.968C230.506 239.583 231.053 239.367 231.624 239.367H297.569C298.14 239.367 298.687 239.583 299.09 239.968C299.493 240.353 299.72 240.875 299.72 241.419C299.72 241.963 299.493 242.485 299.09 242.87C298.687 243.254 298.14 243.471 297.569 243.471Z" fill="#E6E6E6"/>
<path d="M248.003 251.578H231.624C231.053 251.578 230.506 251.362 230.103 250.977C229.7 250.592 229.473 250.071 229.473 249.526C229.473 248.982 229.7 248.46 230.103 248.075C230.506 247.691 231.053 247.474 231.624 247.474H248.003C248.573 247.474 249.12 247.691 249.523 248.075C249.927 248.46 250.153 248.982 250.153 249.526C250.153 250.071 249.927 250.592 249.523 250.977C249.12 251.362 248.573 251.578 248.003 251.578Z" fill="#E6E6E6"/>
<path d="M246.303 180.078H98.4198C97.2398 180.077 96.1085 179.629 95.2741 178.833C94.4397 178.037 93.9703 176.958 93.969 175.832V67.9898C93.9704 66.8641 94.4397 65.7849 95.2741 64.9889C96.1085 64.1929 97.2398 63.7451 98.4198 63.7439H246.303C247.483 63.7451 248.614 64.1929 249.448 64.9889C250.283 65.7849 250.752 66.8641 250.754 67.9898V175.832C250.752 176.958 250.283 178.037 249.448 178.833C248.614 179.629 247.483 180.077 246.303 180.078Z" fill="white"/>
<path d="M246.303 180.604H98.4199C97.0936 180.603 95.822 180.1 94.8842 179.205C93.9463 178.31 93.4188 177.097 93.4172 175.832V67.9897C93.4188 66.7244 93.9463 65.5114 94.8842 64.6167C95.8221 63.7221 97.0936 63.2188 98.4199 63.2174H246.303C247.629 63.2188 248.9 63.7221 249.838 64.6167C250.776 65.5114 251.304 66.7244 251.305 67.9897V175.832C251.304 177.097 250.776 178.31 249.838 179.205C248.9 180.1 247.629 180.603 246.303 180.604ZM98.4199 64.2702C97.3862 64.2713 96.3951 64.6635 95.6642 65.3608C94.9332 66.0581 94.522 67.0035 94.5208 67.9897V175.832C94.5219 176.818 94.9331 177.763 95.6641 178.461C96.395 179.158 97.3861 179.55 98.4199 179.552H246.303C247.336 179.55 248.327 179.158 249.058 178.461C249.789 177.763 250.2 176.818 250.202 175.832V67.9897C250.2 67.0035 249.789 66.0581 249.058 65.3608C248.327 64.6635 247.336 64.2713 246.303 64.2702H98.4199Z" fill="#F0F0F0"/>
<path d="M94.3105 159.548V175.832C94.3122 176.871 94.7456 177.867 95.5159 178.602C96.2862 179.337 97.3304 179.751 98.4197 179.752H246.303C247.392 179.751 248.436 179.337 249.207 178.602C249.977 177.867 250.41 176.871 250.412 175.832V159.548H94.3105Z" fill="#F0F0F0"/>
<path d="M95.7041 64.4308L95.1091 65.3173L250.114 159.992L250.709 159.105L95.7041 64.4308Z" fill="#F0F0F0"/>
<path d="M349.452 19.2412H0.548076C0.40162 19.2381 0.262243 19.1805 0.159802 19.0806C0.0573612 18.9807 0 18.8465 0 18.7067C0 18.567 0.0573612 18.4328 0.159802 18.3329C0.262243 18.233 0.40162 18.1753 0.548076 18.1722H349.452C349.598 18.1753 349.738 18.233 349.84 18.3329C349.943 18.4328 350 18.567 350 18.7067C350 18.8465 349.943 18.9807 349.84 19.0806C349.738 19.1805 349.598 19.2381 349.452 19.2412Z" fill="#CACACA"/>
<path d="M12.8831 11.7585C16.2125 11.7585 18.9115 9.12627 18.9115 5.87925C18.9115 2.63223 16.2125 0 12.8831 0C9.55374 0 6.85474 2.63223 6.85474 5.87925C6.85474 9.12627 9.55374 11.7585 12.8831 11.7585Z" fill="#3F3D56"/>
<path d="M33.7086 11.7585C37.038 11.7585 39.737 9.12627 39.737 5.87925C39.737 2.63223 37.038 0 33.7086 0C30.3792 0 27.6802 2.63223 27.6802 5.87925C27.6802 9.12627 30.3792 11.7585 33.7086 11.7585Z" fill="#3F3D56"/>
<path d="M54.5338 11.7585C57.8632 11.7585 60.5622 9.12627 60.5622 5.87925C60.5622 2.63223 57.8632 0 54.5338 0C51.2044 0 48.5054 2.63223 48.5054 5.87925C48.5054 9.12627 51.2044 11.7585 54.5338 11.7585Z" fill="#3F3D56"/>
<path d="M336.972 1.45728H322.179C321.886 1.46283 321.607 1.57785 321.401 1.77765C321.196 1.97744 321.081 2.24608 321.081 2.52587C321.081 2.80566 321.196 3.07429 321.401 3.27408C321.607 3.47388 321.886 3.5889 322.179 3.59446H336.972C337.266 3.5889 337.545 3.47388 337.75 3.27408C337.955 3.07429 338.07 2.80566 338.07 2.52587C338.07 2.24608 337.955 1.97744 337.75 1.77765C337.545 1.57785 337.266 1.46283 336.972 1.45728Z" fill="#3F3D56"/>
<path d="M336.972 5.46838H322.179C321.886 5.47394 321.607 5.58896 321.401 5.78875C321.196 5.98855 321.081 6.25718 321.081 6.53697C321.081 6.81676 321.196 7.0854 321.401 7.28519C321.607 7.48499 321.886 7.6 322.179 7.60556H336.972C337.266 7.6 337.545 7.48499 337.75 7.28519C337.955 7.0854 338.07 6.81676 338.07 6.53697C338.07 6.25718 337.955 5.98855 337.75 5.78875C337.545 5.58896 337.266 5.47394 336.972 5.46838Z" fill="#3F3D56"/>
<path d="M336.972 9.47424H322.179C321.886 9.4798 321.607 9.59482 321.401 9.79462C321.196 9.99441 321.081 10.263 321.081 10.5428C321.081 10.8226 321.196 11.0913 321.401 11.291C321.607 11.4908 321.886 11.6059 322.179 11.6114H336.972C337.266 11.6059 337.545 11.4908 337.75 11.291C337.955 11.0913 338.07 10.8226 338.07 10.5428C338.07 10.263 337.955 9.99441 337.75 9.79462C337.545 9.59482 337.266 9.4798 336.972 9.47424Z" fill="#3F3D56"/>
<path d="M191.754 342.171L198.866 342.171L202.25 316L191.753 316L191.754 342.171Z" fill="#FFB6B6"/>
<path d="M189.94 339.956L191.942 339.956L199.757 336.924L203.946 339.955H203.947C206.314 339.956 208.584 340.853 210.258 342.45C211.932 344.047 212.873 346.212 212.873 348.471V348.747L189.94 348.748L189.94 339.956Z" fill="#2F2E41"/>
<path d="M127.491 333.35L133.856 336.376L149.122 314.394L139.727 309.927L127.491 333.35Z" fill="#FFB6B6"/>
<path d="M126.903 330.595L128.694 331.447L137.107 332.059L139.439 336.556L139.439 336.556C141.558 337.563 143.17 339.332 143.921 341.474C144.673 343.616 144.502 345.954 143.446 347.976L143.317 348.223L122.792 338.464L126.903 330.595Z" fill="#2F2E41"/>
<path d="M194.905 223.312L149.684 224.438L150.47 245.446C150.47 245.446 149.684 251.073 151.257 252.573C152.83 254.074 153.616 254.074 152.83 256.7C152.043 259.326 150.01 284.416 150.01 284.416C150.01 284.416 131.45 315.724 132.236 316.474C133.023 317.225 133.809 316.474 133.023 318.35C132.236 320.226 131.45 319.476 132.236 320.226C132.933 320.942 133.589 321.694 134.202 322.477H147.02C147.02 322.477 147.737 318.725 147.737 318.35C147.737 317.975 148.523 315.724 148.523 315.349C148.523 314.974 170.918 292.338 170.918 292.338L175.637 254.824L187.041 291.588C187.041 291.588 187.041 323.85 187.827 324.6C188.613 325.351 188.613 324.975 188.22 326.476C187.827 327.977 186.254 327.601 187.434 328.727C188.613 329.852 189.007 327.977 188.613 329.852L188.22 331.728L203.328 331.889C203.328 331.889 204.901 328.727 204.114 327.601C203.328 326.476 203.375 326.783 204.334 324.941C205.294 323.1 205.687 322.725 205.294 322.349C204.901 321.974 204.901 319.979 204.901 319.979C204.901 319.979 199.231 246.196 199.231 245.07C199.201 244.491 199.313 243.914 199.557 243.383V241.855L198.051 236.442L194.905 223.312Z" fill="#2F2E41"/>
<path d="M177.5 142.954C193.847 142.954 207.098 130.312 207.098 114.717C207.098 99.122 193.847 86.4799 177.5 86.4799C161.153 86.4799 147.901 99.122 147.901 114.717C147.901 130.312 161.153 142.954 177.5 142.954Z" fill="#228B22"/>
<path d="M170.704 127.927C170.285 127.926 169.872 127.823 169.506 127.629C169.114 127.427 168.787 127.128 168.56 126.762C168.333 126.396 168.215 125.978 168.219 125.553V105.985C168.219 105.561 168.338 105.144 168.564 104.779C168.791 104.414 169.116 104.113 169.506 103.909C169.896 103.705 170.336 103.604 170.78 103.617C171.225 103.631 171.657 103.758 172.033 103.986L191.49 113.77C191.843 113.983 192.134 114.279 192.335 114.628C192.536 114.978 192.642 115.37 192.642 115.769C192.642 116.168 192.536 116.56 192.335 116.91C192.134 117.259 191.843 117.555 191.49 117.769L172.033 127.553C171.636 127.796 171.175 127.926 170.704 127.927Z" fill="white"/>
<path d="M180.88 152.292C180.88 152.292 165.762 150.85 164.754 152.292C164.096 153.477 163.75 154.797 163.746 156.138C163.746 156.138 157.699 158.541 156.691 157.58C155.684 156.618 154.676 153.734 151.652 154.695C148.629 155.657 142.837 172.293 142.837 172.293C142.837 172.293 143.388 172.293 146.613 187.867C148.788 198.373 148.428 207.001 148.667 212.877C148.706 213.845 147.223 217.267 147.251 218.09C147.377 221.758 148.938 221.443 149.132 222C149.636 223.442 146.613 232.096 164.754 232.096C182.896 232.096 195.998 231.134 195.998 227.769C195.998 226.072 197.838 225.078 197.463 219.669C197.36 218.184 194.678 213.117 194.659 211.536C194.626 209.495 194.706 207.454 194.898 205.421C195.084 203.389 195.452 201.377 195.998 199.405C199.021 188.828 200.222 169.661 200.222 169.661L195.256 160.186L184.407 158.541C184.407 158.541 183.904 152.772 180.88 152.292Z" fill="#3F3D56"/>
<path d="M176.508 148.944C183.485 147.137 187.605 140.276 185.71 133.621C183.816 126.965 176.625 123.035 169.649 124.842C162.672 126.649 158.552 133.51 160.447 140.165C162.341 146.821 169.532 150.751 176.508 148.944Z" fill="#FFB6B6"/>
<path d="M235.67 328.072L236.06 319.702C240.128 317.628 244.665 316.533 249.277 316.511C242.929 321.462 243.722 331.006 239.419 337.663C238.06 339.73 236.231 341.479 234.067 342.779C231.904 344.08 229.461 344.9 226.92 345.177L221.608 348.28C220.879 344.403 221.04 340.422 222.079 336.611C223.119 332.799 225.012 329.248 227.628 326.201C229.114 324.506 230.817 322.996 232.698 321.707C233.97 324.907 235.67 328.072 235.67 328.072Z" fill="#F2F2F2"/>
<path d="M306.101 349.182C306.101 349.29 306.079 349.396 306.036 349.496C305.993 349.595 305.93 349.685 305.85 349.761C305.771 349.837 305.676 349.897 305.572 349.938C305.468 349.979 305.356 350 305.243 350H74.5714C74.3441 350 74.1261 349.914 73.9654 349.76C73.8046 349.607 73.7144 349.399 73.7144 349.182C73.7144 348.966 73.8046 348.758 73.9654 348.604C74.1261 348.451 74.3441 348.365 74.5714 348.365H305.243C305.356 348.364 305.468 348.385 305.572 348.426C305.676 348.467 305.771 348.528 305.85 348.603C305.93 348.679 305.993 348.77 306.036 348.869C306.079 348.968 306.101 349.075 306.101 349.182Z" fill="#CCCCCC"/>
<path d="M233.157 225.583C232.553 225.594 231.954 225.478 231.403 225.244C230.851 225.01 230.36 224.664 229.964 224.229C229.568 223.795 229.277 223.283 229.111 222.729C228.944 222.175 228.908 221.594 229.003 221.025L206.087 209.055L212.794 205.595L234.03 217.762C235.02 217.978 235.894 218.532 236.485 219.321C237.075 220.11 237.342 221.079 237.235 222.043C237.127 223.007 236.652 223.9 235.901 224.552C235.149 225.205 234.173 225.572 233.157 225.583Z" fill="#FFB8B8"/>
<path d="M224.798 219.367L207.291 213.253L199.416 206.207L197.459 205.256L190.715 200.74L190.695 200.683L179.978 170.463C179.486 167.981 180.007 165.414 181.434 163.287C182.862 161.16 185.088 159.633 187.656 159.021C189.076 158.684 190.555 158.637 191.996 158.885C193.436 159.132 194.805 159.668 196.013 160.457C197.22 161.246 198.239 162.269 199.002 163.461C199.765 164.652 200.255 165.984 200.44 167.37L203.889 193.27L214.02 202.06L216.521 202.522L217.097 205.092L228.66 213.05L224.798 219.367Z" fill="#3F3D56"/>
<path d="M156.153 99.0961C156.167 99.6718 156.049 100.243 155.807 100.771C155.564 101.298 155.203 101.768 154.75 102.148C154.296 102.528 153.761 102.809 153.181 102.97C152.602 103.131 151.992 103.169 151.396 103.082L138.963 125.002L135.302 118.621L147.95 98.3022C148.171 97.3559 148.749 96.5198 149.573 95.9523C150.397 95.3849 151.41 95.1255 152.421 95.2234C153.432 95.3212 154.371 95.7695 155.059 96.4833C155.746 97.197 156.136 98.1267 156.153 99.0961Z" fill="#FFB8B8"/>
<path d="M157.908 160.2L150.112 149.379C150.112 149.379 151.338 149.448 150.562 147.026C150.35 146.367 148.311 144.092 148.08 143.304C147.876 142.609 147.668 141.868 147.46 141.088C146.716 138.292 142.695 135.706 143.388 132.287C146.699 115.969 148.354 112.81 148.862 110.196C148.862 110.196 145.984 100.016 141.313 106.304C136.641 112.592 129.237 128.573 131.197 136.515C133.156 144.456 140.648 170.363 142.954 172.29C145.26 174.217 157.908 160.2 157.908 160.2Z" fill="#3F3D56"/>
<path d="M182.574 122.122C181.605 122.095 181.938 120.352 181.157 119.796C181.153 119.813 181.149 119.83 181.145 119.846C181.043 120.223 180.816 120.558 180.499 120.803C180.182 121.047 179.791 121.188 179.384 121.205C178.976 121.221 178.574 121.113 178.236 120.895C177.899 120.677 177.643 120.361 177.508 119.994C177.378 119.57 177.144 119.182 176.824 118.862C176.504 118.542 176.109 118.3 175.671 118.156C175.622 119.772 174.341 121.174 172.813 121.872C171.285 122.569 169.543 122.685 167.849 122.709C166.154 122.644 164.458 122.767 162.794 123.075C161.151 123.47 159.553 124.4 158.851 125.871C158.149 127.342 158.65 129.367 160.185 130.052C158.996 130.058 157.987 130.994 157.576 132.058C157.239 133.15 157.151 134.297 157.318 135.424C157.653 139.596 158.467 144.088 161.652 146.965C164.079 149.158 167.552 150.041 170.895 150.029C174.238 150.016 173.65 149.723 176.882 148.909C176.882 148.909 179.955 140.505 179.181 139.678C178.407 138.852 177.765 137.794 177.905 136.694C178.045 135.593 179.284 134.608 180.36 135.027C180.179 134.586 180.043 134.502 179.957 134.524C180.012 134.399 180.059 134.271 180.099 134.141C180.302 133.478 180.666 132.87 181.163 132.368C181.66 131.866 182.274 131.483 182.956 131.251C183.644 131.038 184.385 131.031 185.078 131.231C185.771 131.431 186.383 131.829 186.832 132.37C190.371 129.204 188.176 122.281 182.574 122.122Z" fill="#2F2E41"/>
</g>
<defs>
<clipPath id="clip0_215_3593">
<rect width="350" height="350" fill="white"/>
</clipPath>
</defs>
</svg>
